<svg data-noselect="" viewBox="0 0 400 300" width="400" height="300" preserveAspectRatio="none" version="1.1" xmlns="http://www.w3.org/2000/svg" style="background: rgba(255, 255, 255, 0);"><defs></defs> <g id="shape_bN2lROeK3e" transform="translate(94.05204460966542,33.457249070631974) rotate(0,95,104.5) scale(1.1152416356877324,1.1152416356877324)" filter="" style="cursor: move; opacity: 1;"><g><rect fill="rgba(0,0,0,0)" width="210" height="229" x="-10" y="-10"></rect><svg version="1.1" id="图层_1" xmlns="http://www.w3.org/2000/svg" xmlns:xlink="http://www.w3.org/1999/xlink" x="0px" y="0px" style="enable-background:new 0 0 283.46 226.77;" xml:space="preserve" viewBox="47 8.411251068115234 190 209.25738525390625" width="190" height="209" preserveAspectRatio="none" data-parent="shape_bN2lROeK3e">
<g>
	<path style="" d="M154.177,122.478c-0.238-2.859-0.508-5.713-0.83-8.562c-0.152-1.334-0.308-2.662-0.479-3.995
		c-0.074-0.516-0.148-1.032-0.224-1.549c-0.724-4.843-1.571-9.672-2.691-14.438c-0.321-1.372-0.671-2.741-1.038-4.107
		c-0.047,0.15-0.103,0.295-0.15,0.448c-2.18,6.794-3.893,13.736-5.384,20.717c-3.393,15.873-5.425,31.984-8.612,47.896
		c-1.612,8.061-3.267,16.337-6.318,24.004c-2.751,6.919-6.172,13.697-13.805,16.157c-14.569,4.694-21.422-12.88-24.731-23.354
		c-3.883-12.284-6.53-24.947-9.601-37.452c-0.584-2.382-1.181-4.762-1.794-7.14c-3.425,16.525-5.195,33.567-11.601,49.192
		c-0.048,0.118-0.101,0.242-0.149,0.359l56.204,32.566c5.837,3.382,13.785,4.831,21.444,4.363c0.236-0.464,0.473-0.924,0.693-1.395
		c0.195-0.414,0.384-0.826,0.57-1.242c0.823-2.07,1.586-4.168,2.252-6.297c1.589-5.077,2.846-10.259,3.825-15.489
		c0.529-2.814,1.002-5.642,1.401-8.478c0.002-0.013,0.002-0.021,0.007-0.032c0.077-0.618,0.156-1.232,0.227-1.85
		c0.175-1.489,0.342-2.98,0.488-4.473c0.602-6.115,1.004-12.254,1.202-18.398C155.485,147.448,155.212,134.927,154.177,122.478z" fill="#046960"></path>
	<path style="" d="M179.408,160.708c-0.537,14.444-1.646,29.779-5.061,44.355l44.201-25.724
		C228.803,173.394,237,158.837,237,146.986v-3.514l-72.471-78.377c4.738,6.226,7.075,14.846,8.807,22.365
		C178.822,111.238,180.313,136.378,179.408,160.708z" fill="#046960"></path>
	<path style="" d="M218.549,46.751l-58.384-33.884c-10.256-5.941-26.986-5.941-37.241,0L65.045,46.751
		C54.79,52.694,47,67.253,47,79.101v67.885c0,3.683,0.235,7.626,1.66,11.491c2.45-10.111,3.837-20.383,5.928-30.577
		c1.582-7.72,3.05-15.691,6.107-22.988c2.61-6.237,6.211-13.953,13.684-15.413c8.016-1.562,14.469,2.36,18.492,9.156l23.446,24.926
		c2.065-12.226,4.359-24.421,7.903-36.303c2.565-8.605,5.801-20.397,13.215-26.307c9.638-7.685,19.89-5.35,27.096,4.124L237,143.472
		V79.101C237,67.253,228.803,52.694,218.549,46.751z" fill="#119F95"></path>
	<path style="" d="M103.796,131.77c2.134,8.712,4.066,17.506,6.359,26.193c1.501-6.802,2.712-13.679,3.85-20.536
		c0.765-4.609,1.514-9.229,2.294-13.847L92.834,98.655C98.668,108.512,101.101,120.771,103.796,131.77z" fill="#046960"></path>
</g>
</svg></g> <!----></g>  <!----></svg>