<svg data-noselect="" viewBox="0 0 400 300" width="400" height="300" preserveAspectRatio="none" version="1.1" xmlns="http://www.w3.org/2000/svg" style="background: rgba(255, 255, 255, 0);"><defs><filter id="filter_shadow_shape_rAFt7kLBph" width="1000%" height="1000%"><feGaussianBlur in="SourceAlpha" stdDeviation="0"></feGaussianBlur> <feOffset dx="4" dy="4" result="offsetblur"></feOffset><feComponentTransfer><feFuncA type="linear" slope="0.61"></feFuncA></feComponentTransfer><feMerge><feMergeNode></feMergeNode><feMergeNode in="SourceGraphic"></feMergeNode></feMerge></filter></defs> <g id="shape_xJmg9QExNM" transform="translate(109.31653302787322,28.636884306987405) rotate(0,95,104.5) scale(0.9545628102329135,0.9545628102329135)" filter="" style="cursor: move; opacity: 1;"><g><rect fill="rgba(0,0,0,0)" width="210" height="229" x="-10" y="-10"></rect><svg version="1.1" id="图层_1" xmlns="http://www.w3.org/2000/svg" xmlns:xlink="http://www.w3.org/1999/xlink" x="0px" y="0px" style="enable-background:new 0 0 283.46 226.77;" xml:space="preserve" viewBox="47 8.411251068115234 190 209.25738525390625" width="190" height="209" preserveAspectRatio="none" data-parent="shape_xJmg9QExNM">
<g>
	<path style="" d="M154.177,122.478c-0.238-2.859-0.508-5.713-0.83-8.562c-0.152-1.334-0.308-2.662-0.479-3.995
		c-0.074-0.516-0.148-1.032-0.224-1.549c-0.724-4.843-1.571-9.672-2.691-14.438c-0.321-1.372-0.671-2.741-1.038-4.107
		c-0.047,0.15-0.103,0.295-0.15,0.448c-2.18,6.794-3.893,13.736-5.384,20.717c-3.393,15.873-5.425,31.984-8.612,47.896
		c-1.612,8.061-3.267,16.337-6.318,24.004c-2.751,6.919-6.172,13.697-13.805,16.157c-14.569,4.694-21.422-12.88-24.731-23.354
		c-3.883-12.284-6.53-24.947-9.601-37.452c-0.584-2.382-1.181-4.762-1.794-7.14c-3.425,16.525-5.195,33.567-11.601,49.192
		c-0.048,0.118-0.101,0.242-0.149,0.359l56.204,32.566c5.837,3.382,13.785,4.831,21.444,4.363c0.236-0.464,0.473-0.924,0.693-1.395
		c0.195-0.414,0.384-0.826,0.57-1.242c0.823-2.07,1.586-4.168,2.252-6.297c1.589-5.077,2.846-10.259,3.825-15.489
		c0.529-2.814,1.002-5.642,1.401-8.478c0.002-0.013,0.002-0.021,0.007-0.032c0.077-0.618,0.156-1.232,0.227-1.85
		c0.175-1.489,0.342-2.98,0.488-4.473c0.602-6.115,1.004-12.254,1.202-18.398C155.485,147.448,155.212,134.927,154.177,122.478z" fill="#046960"></path>
	<path style="" d="M179.408,160.708c-0.537,14.444-1.646,29.779-5.061,44.355l44.201-25.724
		C228.803,173.394,237,158.837,237,146.986v-3.514l-72.471-78.377c4.738,6.226,7.075,14.846,8.807,22.365
		C178.822,111.238,180.313,136.378,179.408,160.708z" fill="#046960"></path>
	<path style="" d="M218.549,46.751l-58.384-33.884c-10.256-5.941-26.986-5.941-37.241,0L65.045,46.751
		C54.79,52.694,47,67.253,47,79.101v67.885c0,3.683,0.235,7.626,1.66,11.491c2.45-10.111,3.837-20.383,5.928-30.577
		c1.582-7.72,3.05-15.691,6.107-22.988c2.61-6.237,6.211-13.953,13.684-15.413c8.016-1.562,14.469,2.36,18.492,9.156l23.446,24.926
		c2.065-12.226,4.359-24.421,7.903-36.303c2.565-8.605,5.801-20.397,13.215-26.307c9.638-7.685,19.89-5.35,27.096,4.124L237,143.472
		V79.101C237,67.253,228.803,52.694,218.549,46.751z" fill="#119F95"></path>
	<path style="" d="M103.796,131.77c2.134,8.712,4.066,17.506,6.359,26.193c1.501-6.802,2.712-13.679,3.85-20.536
		c0.765-4.609,1.514-9.229,2.294-13.847L92.834,98.655C98.668,108.512,101.101,120.771,103.796,131.77z" fill="#046960"></path>
</g>
</svg></g> <!----></g><g id="shapge_LTiw3kCRM9" transform="translate(142.24894998090875,234.8224513172967) rotate(0,60.5,19.139999999999997) scale(0.9545628102329135,0.9545628102329135)" filter="" style="cursor: move; opacity: 1;"><g><svg xmlns="http://www.w3.org/2000/svg" version="1.1" xmlns:xlink="http://www.w3.org/1999/xlink" overflow="hidden" style="top:0; left: 0" width="121" height="38.279999999999994" viewBox="0 0 121 38.279999999999994" preserveAspectRatio="none" data-parent="shapge_LTiw3kCRM9"><rect fill="rgba(0,0,0,0)" width="121" height="38.279999999999994"></rect> <rect opacity="0"></rect><g transform="translate(2.5,0)" data-width="116"><path fill="#046960" d="M8.90-11.75L6.93-11.75L6.93-17.46L6.93-17.46Q4.96-14.38 2.52-12.62L2.52-12.62L2.52-12.62Q2.26-12.99 1.89-13.41L1.89-13.41L1.89-13.41Q1.51-13.83 1.16-14.12L1.16-14.12L1.16-14.12Q4.15-15.98 6.24-19.37L6.24-19.37L1.71-19.37L1.71-21.23L6.93-21.23L6.93-24.24L8.90-24.24L8.90-21.23L13.66-21.23L13.66-19.37L9.11-19.37L9.11-19.37Q9.74-18.91 10.64-18.21L10.64-18.21L10.64-18.21Q11.54-17.52 12.35-16.86L12.35-16.86L12.35-16.86Q13.17-16.21 13.51-15.89L13.51-15.89L12.35-14.18L12.35-14.18Q11.83-14.76 10.85-15.73L10.85-15.73L10.85-15.73Q9.86-16.70 8.90-17.60L8.90-17.60L8.90-11.75ZM13.54-10.41L22.30-10.41L22.71-10.50L24.16-9.48L24.16-9.48Q21.26-4.21 15.70-1.44L15.70-1.44L15.70-1.44Q10.15 1.33 3.45 2.35L3.45 2.35L3.45 2.35Q3.33 1.91 3.00 1.33L3.00 1.33L3.00 1.33Q2.67 0.75 2.32 0.38L2.32 0.38L2.32 0.38Q8.44-0.43 13.49-2.64L13.49-2.64L13.49-2.64Q11.14-4.21 8.44-5.48L8.44-5.48L10.09-6.67L10.09-6.67Q13.02-5.39 15.57-3.68L15.57-3.68L15.57-3.68Q18.94-5.66 20.97-8.55L20.97-8.55L11.19-8.55L11.19-8.55Q7.92-6.29 4.38-4.87L4.38-4.87L4.38-4.87Q4.09-5.22 3.63-5.66L3.63-5.66L3.63-5.66Q3.16-6.09 2.78-6.38L2.78-6.38L2.78-6.38Q5.74-7.48 8.53-9.18L8.53-9.18L8.53-9.18Q11.31-10.88 12.93-12.70L12.93-12.70L15.05-11.86L15.05-11.86Q14.41-11.14 13.54-10.41L13.54-10.41ZM27.41-21.23L27.41-19.37L22.30-19.37L22.30-19.37Q24.71-15.95 28.01-14.09L28.01-14.09L28.01-14.09Q27.64-13.80 27.25-13.35L27.25-13.35L27.25-13.35Q26.85-12.91 26.59-12.53L26.59-12.53L26.59-12.53Q23.78-14.47 21.43-17.75L21.43-17.75L21.43-11.75L19.40-11.75L19.40-17.40L19.40-17.40Q17.34-14.41 14.82-12.70L14.82-12.70L14.82-12.70Q14.56-13.08 14.17-13.51L14.17-13.51L14.17-13.51Q13.78-13.95 13.43-14.24L13.43-14.24L13.43-14.24Q16.56-16.04 18.76-19.37L18.76-19.37L14.59-19.37L14.59-21.23L19.40-21.23L19.40-24.24L21.43-24.24L21.43-21.23L27.41-21.23Z" transform="translate(0 25.52)"></path><path fill="#046960" d="M11.14-10.61L11.14-10.61L9.86-9.08L9.86-9.08Q9.54-9.83 8.95-10.99L8.95-10.99L8.95-10.99Q8.35-12.15 7.71-13.28L7.71-13.28L7.71 2.20L5.74 2.20L5.74-11.83L5.74-11.83Q4.21-6.79 2.15-3.65L2.15-3.65L2.15-3.65Q1.97-4.15 1.64-4.74L1.64-4.74L1.64-4.74Q1.31-5.34 1.02-5.74L1.02-5.74L1.02-5.74Q2.41-7.63 3.63-10.63L3.63-10.63L3.63-10.63Q4.84-13.63 5.54-16.68L5.54-16.68L1.89-16.68L1.89-18.71L5.74-18.71L5.74-24.27L7.71-24.27L7.71-18.71L10.93-18.71L10.93-16.68L7.71-16.68L7.71-15.86L7.71-15.86Q8.09-15.37 8.80-14.30L8.80-14.30L8.80-14.30Q9.51-13.22 10.19-12.17L10.19-12.17L10.19-12.17Q10.88-11.11 11.14-10.61ZM21.40-20.39L21.40-20.39L16.56-20.39L16.56-20.39Q16.41-17.20 16.15-14.38L16.15-14.38L16.15-14.38Q17.69-8.99 20.85-4.96L20.85-4.96L20.85-4.96Q23.23-8.12 24.39-12.62L24.39-12.62L19.23-12.62L19.23-12.62Q20.39-16.04 21.40-20.39ZM25.14-14.53L25.55-14.62L26.85-14.07L26.85-14.07Q25.43-7.54 22.24-3.39L22.24-3.39L22.24-3.39Q24.71-0.96 27.93 0.38L27.93 0.38L27.93 0.38Q27.55 0.70 27.14 1.19L27.14 1.19L27.14 1.19Q26.74 1.68 26.48 2.15L26.48 2.15L26.48 2.15Q23.32 0.70 20.88-1.80L20.88-1.80L20.88-1.80Q18.47 0.75 15.54 2.26L15.54 2.26L15.54 2.26Q15.31 1.86 14.86 1.36L14.86 1.36L14.86 1.36Q14.41 0.87 14.04 0.64L14.04 0.64L14.04 0.64Q17.11-0.81 19.52-3.36L19.52-3.36L19.52-3.36Q17.17-6.32 15.60-10.15L15.60-10.15L15.60-10.15Q14.96-6.29 13.70-3.19L13.70-3.19L13.70-3.19Q12.44-0.09 10.29 2.26L10.29 2.26L10.29 2.26Q10.01 2.00 9.47 1.59L9.47 1.59L9.47 1.59Q8.93 1.19 8.53 0.96L8.53 0.96L8.53 0.96Q11.86-2.38 13.11-7.77L13.11-7.77L13.11-7.77Q14.36-13.17 14.53-20.39L14.53-20.39L11.22-20.39L11.22-22.39L23.95-22.39L23.95-22.39Q22.97-18.39 21.87-14.53L21.87-14.53L25.14-14.53Z" transform="translate(29 25.52)"></path><path fill="#046960" d="M24.48-19.66L4.44-19.66L4.44-16.21L2.32-16.21L2.32-21.66L13.86-21.66L13.86-21.66Q13.83-21.72 13.78-21.81L13.78-21.81L13.78-21.81Q13.20-22.94 12.56-23.98L12.56-23.98L14.65-24.51L14.65-24.51Q15.57-23.14 16.33-21.66L16.33-21.66L26.65-21.66L26.65-16.21L24.48-16.21L24.48-19.66ZM8.06-6.64L8.06-6.64L21.37-6.64L21.37-6.64Q17.66-7.71 14.53-9.40L14.53-9.40L14.53-9.40Q11.48-7.74 8.06-6.64ZM8.85-4.81L8.85-0.61L20.30-0.61L20.30-4.81L8.85-4.81ZM19.11-15.31L10.35-15.31L10.24-15.20L10.24-15.20Q11.98-13.25 14.56-11.69L14.56-11.69L14.56-11.69Q17.28-13.34 19.11-15.31L19.11-15.31ZM20.59-17.02L20.97-17.11L22.42-16.18L22.42-16.18Q20.24-12.96 16.65-10.64L16.65-10.64L16.65-10.64Q21.58-8.38 27.87-7.57L27.87-7.57L27.87-7.57Q27.49-7.16 27.13-6.60L27.13-6.60L27.13-6.60Q26.77-6.03 26.51-5.54L26.51-5.54L26.51-5.54Q24.45-5.83 22.48-6.35L22.48-6.35L22.48 2.18L20.30 2.18L20.30 1.25L8.85 1.25L8.85 2.20L6.76 2.20L6.76-6.21L6.76-6.21Q4.44-5.54 2.18-5.08L2.18-5.08L2.18-5.08Q2.00-5.51 1.71-6.05L1.71-6.05L1.71-6.05Q1.42-6.58 1.13-6.96L1.13-6.96L1.13-6.96Q7.11-8.00 12.53-10.59L12.53-10.59L12.53-10.59Q10.35-12.09 8.73-13.92L8.73-13.92L8.73-13.92Q6.79-12.38 4.21-11.11L4.21-11.11L4.21-11.11Q3.94-11.48 3.54-11.92L3.54-11.92L3.54-11.92Q3.13-12.35 2.76-12.64L2.76-12.64L2.76-12.64Q5.74-14.01 7.82-15.73L7.82-15.73L7.82-15.73Q9.89-17.46 10.99-19.14L10.99-19.14L13.31-18.73L13.31-18.73Q12.82-18.07 12.30-17.40L12.30-17.40L12.30-17.40Q12.12-17.23 11.98-17.02L11.98-17.02L20.59-17.02Z" transform="translate(58 25.52)"></path><path fill="#046960" d="M7.66-17.98L21.40-17.98L21.40-16.21L7.66-16.21L7.66-17.98ZM18.47-4.58L18.47-4.58L20.85-4.58L20.85-4.58Q21.17-4.58 21.34-4.77L21.34-4.77L21.34-4.77Q21.52-4.96 21.59-5.58L21.59-5.58L21.59-5.58Q21.66-6.21 21.69-7.45L21.69-7.45L21.69-7.45Q21.98-7.22 22.48-7.02L22.48-7.02L22.48-7.02Q22.97-6.82 23.37-6.70L23.37-6.70L23.37-6.70Q23.26-4.44 22.77-3.63L22.77-3.63L22.77-3.63Q22.27-2.81 21.05-2.81L21.05-2.81L18.24-2.81L18.24-2.81Q16.73-2.81 16.25-3.33L16.25-3.33L16.25-3.33Q15.78-3.86 15.78-5.31L15.78-5.31L15.78-11.22L12.44-11.22L12.44-11.22Q12.27-7.63 11.02-5.38L11.02-5.38L11.02-5.38Q9.77-3.13 6.50-1.94L6.50-1.94L6.50-1.94Q6.32-2.29 5.99-2.76L5.99-2.76L5.99-2.76Q5.66-3.22 5.34-3.51L5.34-3.51L5.34-3.51Q8.18-4.50 9.24-6.34L9.24-6.34L9.24-6.34Q10.29-8.18 10.47-11.22L10.47-11.22L5.77-11.22L5.77-13.05L23.08-13.05L23.08-11.22L17.66-11.22L17.66-5.34L17.66-5.34Q17.66-4.84 17.81-4.71L17.81-4.71L17.81-4.71Q17.95-4.58 18.47-4.58ZM4.61-20.88L4.61-1.13L24.36-1.13L24.36-20.88L4.61-20.88ZM2.49 2.23L2.49-22.91L26.56-22.91L26.56 2.23L24.36 2.23L24.36 0.90L4.61 0.90L4.61 2.23L2.49 2.23Z" transform="translate(87 25.52)"></path></g></svg></g> <!----></g><g id="shape_rAFt7kLBph" transform="translate(173.64781566501892,33.78267011232292) rotate(0,27.606548000000004,19.60905475) scale(0.9545628102329135,0.9545628102329135)" filter="url(#filter_shadow_shape_rAFt7kLBph)" style="cursor: move; opacity: 1;"><g><svg xmlns="http://www.w3.org/2000/svg" version="1.1" xmlns:xlink="http://www.w3.org/1999/xlink" overflow="hidden" style="top:0; left: 0" width="55.21309600000001" height="39.2181095" viewBox="0 0 55.21309600000001 39.2181095" preserveAspectRatio="none" data-parent="shape_rAFt7kLBph"><rect fill="rgba(0,0,0,0)" width="55.21309600000001" height="39.2181095"></rect> <rect opacity="0"></rect><g transform="translate(4.9987466250000026,0)" data-width="45.21560275"><path fill="#f0fbfb" d="M14.66-11.14L21.78-11.14L21.78-2.25L21.78-2.25Q20.03-0.99 18.05-0.36L18.05-0.36L18.05-0.36Q16.07 0.26 13.71 0.26L13.71 0.26L13.71 0.26Q10.91 0.26 8.66-0.61L8.66-0.61L8.66-0.61Q6.42-1.47 4.83-3.03L4.83-3.03L4.83-3.03Q3.23-4.59 2.38-6.77L2.38-6.77L2.38-6.77Q1.52-8.96 1.52-11.57L1.52-11.57L1.52-11.57Q1.52-14.23 2.35-16.41L2.35-16.41L2.35-16.41Q3.18-18.59 4.72-20.15L4.72-20.15L4.72-20.15Q6.26-21.71 8.45-22.57L8.45-22.57L8.45-22.57Q10.65-23.42 13.37-23.42L13.37-23.42L13.37-23.42Q14.74-23.42 15.92-23.22L15.92-23.22L15.92-23.22Q17.10-23.02 18.11-22.64L18.11-22.64L18.11-22.64Q19.11-22.26 19.96-21.72L19.96-21.72L19.96-21.72Q20.82-21.18 21.57-20.50L21.57-20.50L20.68-19.08L20.68-19.08Q20.47-18.75 20.13-18.66L20.13-18.66L20.13-18.66Q19.80-18.57 19.40-18.82L19.40-18.82L19.40-18.82Q19.01-19.04 18.51-19.37L18.51-19.37L18.51-19.37Q18.01-19.69 17.29-19.99L17.29-19.99L17.29-19.99Q16.57-20.29 15.59-20.50L15.59-20.50L15.59-20.50Q14.61-20.71 13.27-20.71L13.27-20.71L13.27-20.71Q11.32-20.71 9.73-20.07L9.73-20.07L9.73-20.07Q8.15-19.43 7.03-18.24L7.03-18.24L7.03-18.24Q5.92-17.05 5.32-15.37L5.32-15.37L5.32-15.37Q4.72-13.68 4.72-11.57L4.72-11.57L4.72-11.57Q4.72-9.39 5.34-7.67L5.34-7.67L5.34-7.67Q5.97-5.95 7.12-4.74L7.12-4.74L7.12-4.74Q8.28-3.54 9.93-2.91L9.93-2.91L9.93-2.91Q11.57-2.28 13.63-2.28L13.63-2.28L13.63-2.28Q15.24-2.28 16.50-2.64L16.50-2.64L16.50-2.64Q17.75-3.01 18.95-3.65L18.95-3.65L18.95-8.75L15.34-8.75L15.34-8.75Q15.03-8.75 14.85-8.92L14.85-8.92L14.85-8.92Q14.66-9.10 14.66-9.36L14.66-9.36L14.66-11.14Z" transform="translate(0 31.9111905)" stroke="#f0fbfb" stroke-width="2" stroke-linecap="round" stroke-linejoin="round"></path><path fill="#f0fbfb" d="M19.22-4.79L19.22-4.79L19.22-4.79Q19.48-4.79 19.67-4.57L19.67-4.57L20.92-3.23L20.92-3.23Q19.50-1.58 17.47-0.66L17.47-0.66L17.47-0.66Q15.44 0.26 12.56 0.26L12.56 0.26L12.56 0.26Q10.07 0.26 8.03-0.61L8.03-0.61L8.03-0.61Q6.00-1.47 4.56-3.03L4.56-3.03L4.56-3.03Q3.12-4.59 2.33-6.77L2.33-6.77L2.33-6.77Q1.54-8.96 1.54-11.57L1.54-11.57L1.54-11.57Q1.54-14.19 2.36-16.38L2.36-16.38L2.36-16.38Q3.18-18.56 4.68-20.13L4.68-20.13L4.68-20.13Q6.18-21.69 8.26-22.56L8.26-22.56L8.26-22.56Q10.35-23.42 12.87-23.42L12.87-23.42L12.87-23.42Q15.34-23.42 17.23-22.63L17.23-22.63L17.23-22.63Q19.12-21.84 20.56-20.48L20.56-20.48L19.53-19.04L19.53-19.04Q19.43-18.88 19.28-18.78L19.28-18.78L19.28-18.78Q19.12-18.67 18.87-18.67L18.87-18.67L18.87-18.67Q18.57-18.67 18.15-18.99L18.15-18.99L18.15-18.99Q17.73-19.30 17.05-19.69L17.05-19.69L17.05-19.69Q16.38-20.08 15.36-20.39L15.36-20.39L15.36-20.39Q14.34-20.71 12.85-20.71L12.85-20.71L12.85-20.71Q11.06-20.71 9.57-20.09L9.57-20.09L9.57-20.09Q8.08-19.46 7.01-18.28L7.01-18.28L7.01-18.28Q5.93-17.10 5.33-15.41L5.33-15.41L5.33-15.41Q4.74-13.71 4.74-11.57L4.74-11.57L4.74-11.57Q4.74-9.41 5.36-7.71L5.36-7.71L5.36-7.71Q5.98-6.01 7.06-4.84L7.06-4.84L7.06-4.84Q8.13-3.67 9.59-3.06L9.59-3.06L9.59-3.06Q11.06-2.44 12.75-2.44L12.75-2.44L12.75-2.44Q13.79-2.44 14.62-2.56L14.62-2.56L14.62-2.56Q15.45-2.68 16.16-2.94L16.16-2.94L16.16-2.94Q16.86-3.20 17.47-3.60L17.47-3.60L17.47-3.60Q18.07-3.99 18.67-4.54L18.67-4.54L18.67-4.54Q18.95-4.79 19.22-4.79Z" transform="translate(23.618160749999998 31.9111905)" stroke="#f0fbfb" stroke-width="2" stroke-linecap="round" stroke-linejoin="round"></path></g></svg></g> <!----></g>  <!----></svg>